<?xml version="1.0"?>
<svg xmlns="http://www.w3.org/2000/svg" xmlns:xlink="http://www.w3.org/1999/xlink" viewBox="0 0 64 64" width="512" height="512"><defs><linearGradient id="New_Gradient_Swatch_3" x1="32" y1="65.565" x2="32" y2="4.537" gradientUnits="userSpaceOnUse"><stop offset="0" stop-color="#006df0"/><stop offset="1" stop-color="#00e7f0"/></linearGradient><linearGradient id="New_Gradient_Swatch_3-2" x1="47" y1="65.565" x2="47" y2="4.537" xlink:href="#New_Gradient_Swatch_3"/><linearGradient id="New_Gradient_Swatch_3-3" x1="17" y1="65.565" x2="17" y2="4.537" xlink:href="#New_Gradient_Swatch_3"/><linearGradient id="New_Gradient_Swatch_3-4" x1="34.5" y1="65.565" x2="34.5" y2="4.537" xlink:href="#New_Gradient_Swatch_3"/></defs><g id="Shop"><path d="M57,50.3V31.9A5.009,5.009,0,0,0,61,27V24.649l-8-10V9a3,3,0,0,0-3-3H45V3a1,1,0,0,0-1-1H20a1,1,0,0,0-1,1V6H14a3,3,0,0,0-3,3v5.649l-8,10V27a5.009,5.009,0,0,0,4,4.9V51.251a6.958,6.958,0,0,0-2.814,4.2,3.973,3.973,0,0,0-1.157,6.216A1,1,0,0,0,3.77,62H59.46a1,1,0,0,0,.741-.329A6.985,6.985,0,0,0,57,50.3ZM56,30a3,3,0,0,1-3-3V26h6v1A3,3,0,0,1,56,30Zm-5-3a3,3,0,0,1-6,0V26h6ZM27,27a3,3,0,0,1-6,0V26h6Zm-8,0a3,3,0,0,1-6,0V26h6Zm33.566-3-4.8-8H51.52l6.4,8Zm-2.332,0H44.677l-3.2-8h3.957Zm-7.711,0h-5.7l-1.6-8h4.1ZM34.78,24H29.22l1.6-8h2.36Zm-7.6,0h-5.7l3.2-8h4.1Zm-7.857,0H13.766l4.8-8h3.957Zm-7.889,0H6.08l6.4-8h3.754ZM29,26h6v1a3,3,0,0,1-6,0Zm8,0h6v1a3,3,0,0,1-6,0ZM21,4H43v6H21ZM13,9a1,1,0,0,1,1-1h5v3a1,1,0,0,0,1,1H44a1,1,0,0,0,1-1V8h5a1,1,0,0,1,1,1v5H13ZM5,27V26h6v1a3,3,0,0,1-6,0ZM20.8,60H15.2a2.926,2.926,0,0,1-.2-1,3,3,0,0,1,2.837-3A1.276,1.276,0,0,1,18,56a3,3,0,0,1,3,3A2.926,2.926,0,0,1,20.8,60ZM13,59a4.874,4.874,0,0,0,.114,1H9.857a3.918,3.918,0,0,0-3.438-4.954,4.976,4.976,0,0,1,9.022-.326A4.946,4.946,0,0,0,13,59ZM6,60H4.271A1.969,1.969,0,0,1,4,59a2,2,0,0,1,1.955-2,.816.816,0,0,0,.11.009A1.989,1.989,0,0,1,7.729,60Zm21,0V39a1,1,0,0,1,1-1h8a1,1,0,0,1,1,1V60Zm9-24H28a3,3,0,0,0-3,3V60H22.886A4.874,4.874,0,0,0,23,59a5.006,5.006,0,0,0-5-5,2.6,2.6,0,0,0-.422.023c-.085.007-.163.033-.247.044A6.963,6.963,0,0,0,9,50.293V31.9a4.994,4.994,0,0,0,3-1.93,4.954,4.954,0,0,0,8,0,4.954,4.954,0,0,0,8,0,4.954,4.954,0,0,0,8,0,4.954,4.954,0,0,0,8,0,4.954,4.954,0,0,0,8,0,4.994,4.994,0,0,0,3,1.93V50a6.978,6.978,0,0,0-6.316,4.032A4.992,4.992,0,0,0,44,59a4.874,4.874,0,0,0,.114,1H39V39A3,3,0,0,0,36,36ZM46.2,60a2.926,2.926,0,0,1-.2-1,3,3,0,0,1,3-3,1.3,1.3,0,0,1,.257.017A2.972,2.972,0,0,1,52,59a2.926,2.926,0,0,1-.2,1H46.2Zm12.795,0H53.886A4.874,4.874,0,0,0,54,59a4.952,4.952,0,0,0-3.214-4.663A4.99,4.99,0,1,1,58.992,60Z" style="fill:url(#New_Gradient_Swatch_3)"/><path d="M42,48H52a1,1,0,0,0,1-1V41a1,1,0,0,0-1-1H42a1,1,0,0,0-1,1v6A1,1,0,0,0,42,48Zm1-6h8v4H43Z" style="fill:url(#New_Gradient_Swatch_3-2)"/><path d="M22,40H12a1,1,0,0,0-1,1v6a1,1,0,0,0,1,1H22a1,1,0,0,0,1-1V41A1,1,0,0,0,22,40Zm-1,6H13V42h8Z" style="fill:url(#New_Gradient_Swatch_3-3)"/><path d="M35,48H34a1,1,0,0,0,0,2h1a1,1,0,0,0,0-2Z" style="fill:url(#New_Gradient_Swatch_3-4)"/></g></svg>
